<?xml version="1.0" encoding="utf-8"?>
<!-- Generator: Adobe Illustrator 24.3.0, SVG Export Plug-In . SVG Version: 6.00 Build 0)  -->
<svg version="1.1" id="Layer_1" xmlns="http://www.w3.org/2000/svg" xmlns:xlink="http://www.w3.org/1999/xlink" x="0px" y="0px"
	 viewBox="0 0 32 32" style="enable-background:new 0 0 32 32;" xml:space="preserve">
<style type="text/css">
	.Blue{fill:#1177D7;}
	.Black{fill:#727272;}
	.st0{opacity:0.5;}
</style>
<path class="Blue" d="M0,4h28v6H0V4z"/>
<g class="st0">
	<path class="Black" d="M15.1,18H10v-6h8v3.1C16.8,15.8,15.8,16.8,15.1,18z M22,14c2.4,0,4.5,1.1,6,2.7V12h-8v2.3
		C20.6,14.1,21.3,14,22,14z M14,22c0-0.7,0.1-1.4,0.3-2H10v6h5.1C14.4,24.8,14,23.5,14,22z M0,18h8v-6H0V18z M0,26h8v-6H0V26z"/>
</g>
<path class="Blue" d="M31.5,29l-4.1-4.2C27.8,23.9,28,23,28,22c0-3.3-2.7-6-6-6c-1,0-1.9,0.2-2.7,0.7l4.2,4.2c0.7,0.7,0.7,1.9,0,2.6
	c-0.7,0.7-1.9,0.7-2.6,0l-4.2-4.2C16.2,20.1,16,21,16,22c0,3.3,2.7,6,6,6c1,0,1.9-0.2,2.7-0.7l4.1,4.2c0.7,0.7,1.9,0.7,2.6,0
	C32.2,30.9,32.2,29.7,31.5,29z"/>
</svg>
