<?xml version="1.0" encoding="utf-8"?>
<!-- Generator: Adobe Illustrator 24.3.0, SVG Export Plug-In . SVG Version: 6.00 Build 0)  -->
<svg version="1.1" id="Layer_1" xmlns="http://www.w3.org/2000/svg" xmlns:xlink="http://www.w3.org/1999/xlink" x="0px" y="0px"
	 viewBox="0 0 32 32" style="enable-background:new 0 0 32 32;" xml:space="preserve">
<style type="text/css">
	.Blue{fill:#1177D7;}
	.Black{fill:#727272;}
</style>
<path class="Black" d="M9.1,13.7h3.6l0.7,2.3H16L12.4,6H9.7L6,16h2.5L9.1,13.7z M10.8,8.7c0.1-0.3,0.1-0.6,0.1-0.9h0.1
	c0,0.3,0.1,0.6,0.1,0.9l1.1,3.3H9.7L10.8,8.7z M15.1,26H1c-0.5,0-1-0.5-1-1V1c0-0.5,0.5-1,1-1h24c0.5,0,1,0.5,1,1v14.1
	c-0.6-0.4-1.3-0.6-2-0.8V2H2v22h12.3C14.4,24.7,14.7,25.4,15.1,26z"/>
<path class="Blue" d="M31.5,29l-4.1-4.2C27.8,23.9,28,23,28,22c0-3.3-2.7-6-6-6c-1,0-1.9,0.2-2.7,0.7l4.2,4.2c0.7,0.7,0.7,1.9,0,2.6
	c-0.7,0.7-1.9,0.7-2.6,0l-4.2-4.2C16.2,20.1,16,21,16,22c0,3.3,2.7,6,6,6c1,0,1.9-0.2,2.7-0.7l4.1,4.2c0.7,0.7,1.9,0.7,2.6,0
	C32.2,30.9,32.2,29.7,31.5,29z"/>
</svg>
